<svg xmlns="http://www.w3.org/2000/svg" version="1.1" xmlns:xlink="http://www.w3.org/1999/xlink" xmlns:svgjs="http://svgjs.dev/svgjs" viewBox="0 0 7.605588198700204 6.946138154452239"><g transform="matrix(0.8513694985104348,0,0,0.8513694985104348,1.081415192703985,5.093861330074651)"><rect width="8.818232061462908" height="8.818232061462908" x="-1.2126438627627034" y="-6.312863176576222" fill="#ffffff"></rect><g clip-path="url(#SvgjsClipPath28657)"><g clip-path="url(#SvgjsClipPath28652d3181887-24c5-42ca-858e-2e49d32e8c92)"><path d=" M 0.8935894754189002 -3.3424832330189096 L 2.5669167779674584 -2.726419313942676 L 2.5669167779674584 -4.051088107243066 L 3.460408944285257 -4.380187487169748 L 3.460408944285257 -2.3973199340159934 L 3.626904816270636 -2.336015200321786 L 3.626904816270636 -4.441492220863956 L 4.520494291689536 -4.770494291689536 L 4.520494291689536 -0.25 L 2.120073385707457 -0.25 L 2.120073385707457 -2.0553757527438585 L 3.0136628611263574 -1.7263736819182784 L 3.0136628611263574 -1.093280670149209 L 3.626904816270636 -0.8675235555927618 L 3.626904816270636 -1.6780110586706258 L 1.95367482282318 -2.29407497774686 L 1.95367482282318 -0.9693088753453676 L 1.0599880383031777 -0.6403068045197875 L 1.0599880383031777 -2.623174357673542 L 0.8935894754189002 -2.684381782266648 L 0.8935894754189002 -0.5790020708255801 L 0 -0.25 L 0 -4.770494291689536 L 2.400420905982079 -4.770494291689536 L 2.400420905982079 -2.965021229844575 L 1.5068314305631787 -3.294120609771257 L 1.5068314305631787 -3.9271163124392245 L 0.8935894754189002 -4.152970736096773 L 0.8935894754189002 -3.3424832330189096 Z" fill="url(#gradient-9b46edaa-cbdd-4c47-b2d7-c7f7f843fe52_0)" transform="matrix(1,0,0,1,0,0)" fill-rule="evenodd"></path></g></g><g><path d=" M 0.294 0.9630000000000002 L 0.06 0.9630000000000002 L 0.06 2.220446049250313e-16 L 0.34650000000000003 2.220446049250313e-16 L 0.5025000000000001 0.5145000000000002 L 0.6585 2.220446049250313e-16 L 0.9450000000000001 2.220446049250313e-16 L 0.9450000000000001 0.9630000000000002 L 0.7125 0.9630000000000002 L 0.7125 0.3510000000000002 L 0.5925 0.7545000000000002 L 0.41250000000000003 0.7545000000000002 L 0.294 0.3540000000000002 L 0.294 0.9630000000000002 M 1.280974365234375 2.220446049250313e-16 L 1.502974365234375 2.220446049250313e-16 Q 1.7234743652343751 2.220446049250313e-16 1.7234743652343751 0.18600000000000017 L 1.7234743652343751 0.7770000000000001 Q 1.7234743652343751 0.9630000000000002 1.502974365234375 0.9630000000000002 L 1.280974365234375 0.9630000000000002 Q 1.060474365234375 0.9630000000000002 1.060474365234375 0.7770000000000001 L 1.060474365234375 0.18600000000000017 Q 1.060474365234375 2.220446049250313e-16 1.280974365234375 2.220446049250313e-16 M 1.460974365234375 0.7425000000000002 L 1.460974365234375 0.22050000000000014 Q 1.460974365234375 0.18750000000000022 1.4234743652343749 0.18750000000000022 L 1.360474365234375 0.18750000000000022 Q 1.322974365234375 0.18750000000000022 1.322974365234375 0.22050000000000014 L 1.322974365234375 0.7425000000000002 Q 1.322974365234375 0.7755000000000002 1.360474365234375 0.7755000000000002 L 1.4234743652343749 0.7755000000000002 Q 1.460974365234375 0.7755000000000002 1.460974365234375 0.7425000000000002 M 2.294961181640625 2.220446049250313e-16 L 2.567961181640625 2.220446049250313e-16 L 2.330961181640625 0.9630000000000002 L 2.026461181640625 0.9630000000000002 L 1.789461181640625 2.220446049250313e-16 L 2.062461181640625 2.220446049250313e-16 L 2.177961181640625 0.6435000000000002 L 2.294961181640625 2.220446049250313e-16 M 2.9009912109375 0.7755000000000002 L 3.2294912109375 0.7755000000000002 L 3.2294912109375 0.9630000000000002 L 2.6384912109375 0.9630000000000002 L 2.6384912109375 2.220446049250313e-16 L 3.2159912109375 2.220446049250313e-16 L 3.2159912109375 0.18750000000000022 L 2.9009912109375 0.18750000000000022 L 2.9009912109375 0.38400000000000023 L 3.1724912109375 0.38400000000000023 L 3.1724912109375 0.5715000000000001 L 2.9009912109375 0.5715000000000001 L 2.9009912109375 0.7755000000000002 M 3.545953125 0.9630000000000002 L 3.311953125 0.9630000000000002 L 3.311953125 2.220446049250313e-16 L 3.598453125 2.220446049250313e-16 L 3.754453125 0.5145000000000002 L 3.910453125 2.220446049250313e-16 L 4.196953125 2.220446049250313e-16 L 4.196953125 0.9630000000000002 L 3.964453125 0.9630000000000002 L 3.964453125 0.3510000000000002 L 3.8444531250000002 0.7545000000000002 L 3.664453125 0.7545000000000002 L 3.545953125 0.3540000000000002 L 3.545953125 0.9630000000000002 M 4.8074274902343745 0.9630000000000002 L 4.777427490234375 0.8190000000000002 L 4.546427490234375 0.8190000000000002 L 4.514927490234375 0.9630000000000002 L 4.256927490234375 0.9630000000000002 L 4.504427490234375 2.220446049250313e-16 L 4.823927490234375 2.220446049250313e-16 L 5.071427490234375 0.9630000000000002 L 4.8074274902343745 0.9630000000000002 M 4.586927490234375 0.6330000000000002 L 4.736927490234375 0.6330000000000002 L 4.663427490234375 0.2865000000000002 L 4.586927490234375 0.6330000000000002 M 5.71197216796875 2.220446049250313e-16 L 5.71197216796875 0.18750000000000022 L 5.52597216796875 0.18750000000000022 L 5.52597216796875 0.9630000000000002 L 5.26347216796875 0.9630000000000002 L 5.26347216796875 0.18750000000000022 L 5.07897216796875 0.18750000000000022 L 5.07897216796875 2.220446049250313e-16 L 5.71197216796875 2.220446049250313e-16 M 6.041982421875 0.7755000000000002 L 6.370482421875 0.7755000000000002 L 6.370482421875 0.9630000000000002 L 5.779482421875 0.9630000000000002 L 5.779482421875 2.220446049250313e-16 L 6.356982421875 2.220446049250313e-16 L 6.356982421875 0.18750000000000022 L 6.041982421875 0.18750000000000022 L 6.041982421875 0.38400000000000023 L 6.313482421875 0.38400000000000023 L 6.313482421875 0.5715000000000001 L 6.041982421875 0.5715000000000001 L 6.041982421875 0.7755000000000002" fill="#1c3423" fill-rule="nonzero"></path></g><g></g></g><defs><clipPath id="SvgjsClipPath28657"><path d=" M 0 -4.770494291689536 h 4.520494291689536 v 4.520494291689536 h -4.520494291689536 Z"></path></clipPath><clipPath id="SvgjsClipPath28652d3181887-24c5-42ca-858e-2e49d32e8c92"><path d=" M 0 -4.770494291689536 L 4.520494291689536 -4.770494291689536 L 4.520494291689536 -0.25 L 0 -0.25 Z"></path></clipPath><linearGradient id="gradient-9b46edaa-cbdd-4c47-b2d7-c7f7f843fe52_0" x1="0" x2="1" y1="0" y2="1"><stop stop-color="#67a97b" offset="0"></stop><stop stop-color="#1c3423" offset="1"></stop></linearGradient></defs></svg>