<svg xmlns="http://www.w3.org/2000/svg" xmlns:xlink="http://www.w3.org/1999/xlink" width="500" zoomAndPan="magnify" viewBox="0 0 375 374.999991" height="500" preserveAspectRatio="xMidYMid meet" version="1.0"><defs><g/><clipPath id="46aaa81ed3"><path d="M 266 229 L 268 229 L 268 250.898438 L 266 250.898438 Z M 266 229 " clip-rule="nonzero"/></clipPath><clipPath id="4bd8b66c3a"><path d="M 266 124.148438 L 268 124.148438 L 268 146 L 266 146 Z M 266 124.148438 " clip-rule="nonzero"/></clipPath><clipPath id="bb217519b2"><path d="M 308 187 L 330.136719 187 L 330.136719 188 L 308 188 Z M 308 187 " clip-rule="nonzero"/></clipPath><clipPath id="e8212f8d35"><path d="M 222.136719 216 L 238 216 L 238 233 L 222.136719 233 Z M 222.136719 216 " clip-rule="nonzero"/></clipPath><clipPath id="ab40471919"><path d="M 222.136719 142 L 238 142 L 238 159 L 222.136719 159 Z M 222.136719 142 " clip-rule="nonzero"/></clipPath></defs><g clip-path="url(#46aaa81ed3)"><path fill="#008080" d="M 267.011719 229.171875 C 266.898438 229.171875 266.804688 229.210938 266.722656 229.289062 C 266.644531 229.371094 266.605469 229.46875 266.605469 229.578125 L 266.605469 250.292969 C 266.605469 250.40625 266.644531 250.503906 266.722656 250.582031 C 266.804688 250.664062 266.898438 250.703125 267.011719 250.703125 C 267.125 250.703125 267.222656 250.664062 267.300781 250.582031 C 267.382812 250.503906 267.421875 250.40625 267.421875 250.292969 L 267.421875 229.578125 C 267.421875 229.46875 267.382812 229.371094 267.300781 229.289062 C 267.222656 229.210938 267.125 229.171875 267.011719 229.171875 Z M 267.011719 229.171875 " fill-opacity="1" fill-rule="nonzero"/></g><g clip-path="url(#4bd8b66c3a)"><path fill="#008080" d="M 266.984375 145.839844 C 267.097656 145.835938 267.195312 145.796875 267.273438 145.71875 C 267.355469 145.636719 267.394531 145.542969 267.394531 145.429688 L 267.394531 124.671875 C 267.402344 124.550781 267.367188 124.449219 267.285156 124.363281 C 267.207031 124.273438 267.105469 124.230469 266.988281 124.230469 C 266.867188 124.230469 266.765625 124.273438 266.6875 124.363281 C 266.605469 124.449219 266.570312 124.550781 266.578125 124.671875 L 266.578125 145.429688 C 266.578125 145.542969 266.617188 145.636719 266.699219 145.71875 C 266.777344 145.796875 266.871094 145.835938 266.984375 145.839844 Z M 266.984375 145.839844 " fill-opacity="1" fill-rule="nonzero"/></g><g clip-path="url(#bb217519b2)"><path fill="#008080" d="M 329.804688 187.050781 L 309.074219 187.050781 C 308.953125 187.039062 308.851562 187.074219 308.761719 187.15625 C 308.675781 187.238281 308.632812 187.339844 308.632812 187.457031 C 308.632812 187.578125 308.675781 187.675781 308.761719 187.757812 C 308.851562 187.839844 308.953125 187.875 309.074219 187.867188 L 329.808594 187.867188 C 329.921875 187.867188 330.015625 187.824219 330.097656 187.746094 C 330.175781 187.664062 330.21875 187.570312 330.21875 187.457031 C 330.21875 187.34375 330.175781 187.246094 330.097656 187.167969 C 330.015625 187.085938 329.921875 187.046875 329.808594 187.046875 Z M 329.804688 187.050781 " fill-opacity="1" fill-rule="nonzero"/></g><g clip-path="url(#e8212f8d35)"><path fill="#008080" d="M 237.710938 217.191406 C 237.710938 217.011719 237.625 216.886719 237.460938 216.816406 C 237.292969 216.746094 237.144531 216.777344 237.015625 216.902344 L 222.3125 231.625 C 222.183594 231.753906 222.15625 231.898438 222.226562 232.066406 C 222.292969 232.234375 222.417969 232.320312 222.601562 232.320312 C 222.714844 232.320312 222.808594 232.28125 222.890625 232.203125 L 237.59375 217.476562 C 237.671875 217.398438 237.714844 217.304688 237.710938 217.191406 Z M 237.710938 217.191406 " fill-opacity="1" fill-rule="nonzero"/></g><path fill="#008080" d="M 296.386719 158.070312 C 296.464844 158.152344 296.5625 158.191406 296.675781 158.191406 C 296.789062 158.191406 296.882812 158.152344 296.964844 158.070312 L 311.683594 143.34375 C 311.769531 143.261719 311.8125 143.164062 311.8125 143.050781 C 311.816406 142.933594 311.777344 142.835938 311.695312 142.753906 C 311.613281 142.671875 311.515625 142.632812 311.398438 142.636719 C 311.285156 142.636719 311.1875 142.679688 311.105469 142.765625 L 296.386719 157.492188 C 296.308594 157.574219 296.265625 157.671875 296.265625 157.78125 C 296.265625 157.894531 296.308594 157.992188 296.386719 158.070312 Z M 296.386719 158.070312 " fill-opacity="1" fill-rule="nonzero"/><g clip-path="url(#ab40471919)"><path fill="#008080" d="M 237.023438 158.113281 C 237.101562 158.203125 237.199219 158.25 237.316406 158.253906 C 237.4375 158.257812 237.539062 158.21875 237.621094 158.132812 C 237.707031 158.050781 237.746094 157.949219 237.742188 157.828125 C 237.734375 157.710938 237.6875 157.613281 237.597656 157.535156 L 222.859375 142.792969 C 222.78125 142.714844 222.683594 142.679688 222.574219 142.679688 C 222.464844 142.683594 222.371094 142.722656 222.292969 142.800781 C 222.210938 142.878906 222.171875 142.972656 222.171875 143.082031 C 222.167969 143.195312 222.207031 143.289062 222.28125 143.371094 Z M 237.023438 158.113281 " fill-opacity="1" fill-rule="nonzero"/></g><path fill="#008080" d="M 297.050781 216.933594 C 296.921875 216.804688 296.773438 216.777344 296.605469 216.847656 C 296.4375 216.917969 296.355469 217.042969 296.355469 217.222656 C 296.355469 217.335938 296.394531 217.433594 296.472656 217.511719 L 311.125 232.164062 C 311.203125 232.253906 311.300781 232.300781 311.417969 232.304688 C 311.539062 232.308594 311.640625 232.269531 311.722656 232.183594 C 311.808594 232.101562 311.847656 232 311.84375 231.878906 C 311.839844 231.761719 311.789062 231.664062 311.699219 231.585938 Z M 297.050781 216.933594 " fill-opacity="1" fill-rule="nonzero"/><path fill="#008080" d="M 305.625 171.652344 C 305.597656 171.714844 305.589844 171.78125 305.59375 171.851562 C 305.601562 171.917969 305.625 171.980469 305.660156 172.039062 C 305.699219 172.097656 305.746094 172.140625 305.808594 172.171875 C 305.867188 172.207031 305.933594 172.222656 306 172.222656 C 306.054688 172.222656 306.105469 172.214844 306.152344 172.195312 L 325.433594 164.449219 C 325.527344 164.402344 325.597656 164.332031 325.636719 164.230469 C 325.671875 164.128906 325.671875 164.03125 325.632812 163.929688 C 325.59375 163.832031 325.523438 163.757812 325.429688 163.714844 C 325.332031 163.667969 325.230469 163.660156 325.128906 163.691406 L 305.851562 171.4375 C 305.746094 171.480469 305.671875 171.550781 305.625 171.652344 Z M 305.625 171.652344 " fill-opacity="1" fill-rule="nonzero"/><path fill="#008080" d="M 243.96875 129.042969 C 243.929688 128.9375 243.855469 128.863281 243.75 128.820312 C 243.648438 128.777344 243.542969 128.773438 243.4375 128.816406 C 243.332031 128.859375 243.257812 128.929688 243.214844 129.035156 C 243.167969 129.136719 243.167969 129.242188 243.210938 129.347656 L 250.960938 148.640625 C 251.03125 148.8125 251.15625 148.894531 251.339844 148.894531 C 251.394531 148.894531 251.445312 148.886719 251.496094 148.867188 C 251.601562 148.824219 251.671875 148.75 251.71875 148.648438 C 251.761719 148.542969 251.761719 148.4375 251.71875 148.332031 Z M 243.96875 129.042969 " fill-opacity="1" fill-rule="nonzero"/><path fill="#008080" d="M 283.066406 226.386719 C 283.019531 226.289062 282.945312 226.21875 282.847656 226.179688 C 282.746094 226.140625 282.644531 226.140625 282.542969 226.179688 C 282.441406 226.222656 282.371094 226.292969 282.324219 226.390625 C 282.277344 226.488281 282.273438 226.589844 282.308594 226.691406 L 290.03125 245.914062 C 290.078125 246.011719 290.152344 246.078125 290.25 246.117188 C 290.351562 246.15625 290.453125 246.152344 290.550781 246.113281 C 290.648438 246.074219 290.722656 246.007812 290.769531 245.910156 C 290.816406 245.8125 290.820312 245.710938 290.789062 245.609375 Z M 283.066406 226.386719 " fill-opacity="1" fill-rule="nonzero"/><path fill="#008080" d="M 324.921875 211.761719 L 305.871094 203.628906 C 305.765625 203.585938 305.660156 203.585938 305.558594 203.625 C 305.453125 203.667969 305.378906 203.742188 305.335938 203.847656 C 305.289062 203.949219 305.289062 204.054688 305.335938 204.15625 C 305.375 204.261719 305.449219 204.335938 305.550781 204.382812 L 324.605469 212.515625 C 324.65625 212.535156 324.710938 212.546875 324.765625 212.546875 C 324.945312 212.546875 325.074219 212.464844 325.140625 212.296875 C 325.1875 212.191406 325.1875 212.089844 325.140625 211.984375 C 325.097656 211.882812 325.027344 211.808594 324.921875 211.761719 Z M 324.921875 211.761719 " fill-opacity="1" fill-rule="nonzero"/><path fill="#008080" d="M 283.363281 149.148438 C 283.414062 149.167969 283.46875 149.179688 283.523438 149.179688 C 283.707031 149.179688 283.832031 149.09375 283.898438 148.925781 L 292.035156 129.871094 C 292.078125 129.769531 292.078125 129.664062 292.039062 129.5625 C 291.996094 129.457031 291.921875 129.382812 291.820312 129.335938 C 291.714844 129.292969 291.609375 129.292969 291.507812 129.335938 C 291.402344 129.378906 291.328125 129.453125 291.285156 129.558594 L 283.148438 148.609375 C 283.101562 148.714844 283.101562 148.816406 283.144531 148.921875 C 283.1875 149.027344 283.257812 149.101562 283.363281 149.148438 Z M 283.363281 149.148438 " fill-opacity="1" fill-rule="nonzero"/><path fill="#008080" d="M 250.644531 225.789062 C 250.539062 225.746094 250.433594 225.746094 250.332031 225.789062 C 250.226562 225.828125 250.152344 225.902344 250.105469 226.003906 L 241.964844 245.082031 C 241.921875 245.1875 241.921875 245.292969 241.964844 245.394531 C 242.007812 245.5 242.078125 245.574219 242.183594 245.617188 C 242.234375 245.640625 242.289062 245.652344 242.34375 245.652344 C 242.523438 245.652344 242.648438 245.566406 242.71875 245.398438 L 250.859375 226.320312 C 250.898438 226.214844 250.898438 226.113281 250.859375 226.011719 C 250.816406 225.910156 250.746094 225.835938 250.644531 225.789062 Z M 250.644531 225.789062 " fill-opacity="1" fill-rule="nonzero"/><path fill="#008080" d="M 258.890625 228.339844 C 258.78125 228.316406 258.679688 228.335938 258.585938 228.398438 C 258.492188 228.460938 258.433594 228.542969 258.410156 228.652344 L 256.359375 238.980469 C 256.335938 239.089844 256.355469 239.195312 256.421875 239.289062 C 256.503906 239.40625 256.613281 239.46875 256.757812 239.46875 C 256.984375 239.46875 257.117188 239.359375 257.160156 239.140625 L 259.210938 228.8125 C 259.234375 228.703125 259.210938 228.597656 259.148438 228.507812 C 259.085938 228.414062 258.996094 228.359375 258.890625 228.339844 Z M 258.890625 228.339844 " fill-opacity="1" fill-rule="nonzero"/><path fill="#008080" d="M 277.351562 135.328125 C 277.238281 135.304688 277.136719 135.324219 277.042969 135.386719 C 276.949219 135.449219 276.890625 135.539062 276.871094 135.648438 L 274.785156 146.144531 C 274.761719 146.257812 274.78125 146.359375 274.847656 146.453125 C 274.90625 146.542969 274.992188 146.601562 275.097656 146.625 C 275.125 146.628906 275.152344 146.628906 275.179688 146.625 C 275.402344 146.625 275.535156 146.515625 275.578125 146.296875 L 277.664062 135.800781 C 277.683594 135.691406 277.664062 135.589844 277.601562 135.5 C 277.539062 135.410156 277.457031 135.351562 277.351562 135.328125 Z M 277.351562 135.328125 " fill-opacity="1" fill-rule="nonzero"/><path fill="#008080" d="M 308.070312 195.332031 C 307.976562 195.394531 307.917969 195.476562 307.894531 195.585938 C 307.871094 195.695312 307.890625 195.796875 307.953125 195.890625 C 308.015625 195.984375 308.097656 196.042969 308.207031 196.066406 L 318.535156 198.113281 C 318.5625 198.117188 318.585938 198.117188 318.613281 198.113281 C 318.839844 198.113281 318.972656 198.003906 319.015625 197.785156 C 319.035156 197.671875 319.015625 197.570312 318.953125 197.476562 C 318.890625 197.386719 318.808594 197.328125 318.699219 197.304688 L 308.375 195.253906 C 308.261719 195.238281 308.160156 195.261719 308.070312 195.332031 Z M 308.070312 195.332031 " fill-opacity="1" fill-rule="nonzero"/><path fill="#008080" d="M 311.175781 157.933594 C 311.113281 157.839844 311.027344 157.78125 310.914062 157.761719 C 310.804688 157.738281 310.703125 157.757812 310.609375 157.820312 L 301.6875 163.785156 C 301.59375 163.851562 301.535156 163.9375 301.515625 164.046875 C 301.492188 164.160156 301.511719 164.261719 301.574219 164.355469 C 301.636719 164.449219 301.722656 164.507812 301.835938 164.527344 C 301.945312 164.550781 302.046875 164.53125 302.140625 164.464844 L 311.0625 158.5 C 311.15625 158.4375 311.214844 158.351562 311.238281 158.238281 C 311.257812 158.128906 311.238281 158.027344 311.175781 157.933594 Z M 311.175781 157.933594 " fill-opacity="1" fill-rule="nonzero"/><path fill="#008080" d="M 243.308594 152.789062 C 243.410156 152.941406 243.546875 152.996094 243.726562 152.960938 C 243.902344 152.925781 244.011719 152.820312 244.046875 152.644531 C 244.070312 152.53125 244.050781 152.429688 243.988281 152.335938 L 237.964844 143.328125 C 237.898438 143.242188 237.8125 143.1875 237.707031 143.167969 C 237.597656 143.152344 237.5 143.171875 237.40625 143.230469 C 237.316406 143.292969 237.257812 143.378906 237.234375 143.484375 C 237.210938 143.589844 237.230469 143.691406 237.285156 143.785156 Z M 243.308594 152.789062 " fill-opacity="1" fill-rule="nonzero"/><path fill="#008080" d="M 290.746094 222.253906 C 290.683594 222.160156 290.597656 222.101562 290.488281 222.078125 C 290.375 222.058594 290.273438 222.078125 290.179688 222.140625 C 290.085938 222.199219 290.03125 222.285156 290.007812 222.394531 C 289.984375 222.503906 290.003906 222.605469 290.066406 222.699219 L 295.953125 231.5 C 296.050781 231.644531 296.1875 231.699219 296.359375 231.671875 C 296.53125 231.640625 296.640625 231.539062 296.683594 231.371094 C 296.707031 231.261719 296.6875 231.160156 296.625 231.066406 Z M 290.746094 222.253906 " fill-opacity="1" fill-rule="nonzero"/><path fill="#008080" d="M 319.183594 177.675781 C 319.164062 177.566406 319.105469 177.480469 319.011719 177.417969 C 318.921875 177.351562 318.820312 177.332031 318.707031 177.351562 L 308.253906 179.316406 C 308.148438 179.335938 308.066406 179.386719 308.003906 179.46875 C 307.941406 179.554688 307.914062 179.648438 307.921875 179.753906 C 307.933594 179.859375 307.976562 179.945312 308.050781 180.015625 C 308.128906 180.089844 308.21875 180.125 308.324219 180.125 L 308.402344 180.125 L 318.859375 178.164062 C 318.972656 178.140625 319.058594 178.082031 319.121094 177.988281 C 319.1875 177.894531 319.207031 177.789062 319.183594 177.675781 Z M 319.183594 177.675781 " fill-opacity="1" fill-rule="nonzero"/><path fill="#008080" d="M 257.679688 135.660156 C 257.65625 135.554688 257.597656 135.472656 257.503906 135.414062 C 257.414062 135.355469 257.316406 135.335938 257.210938 135.355469 C 257.101562 135.375 257.019531 135.429688 256.953125 135.515625 C 256.890625 135.605469 256.863281 135.703125 256.878906 135.808594 L 258.839844 146.265625 C 258.882812 146.484375 259.019531 146.597656 259.242188 146.597656 C 259.269531 146.601562 259.292969 146.601562 259.320312 146.597656 C 259.429688 146.578125 259.515625 146.523438 259.582031 146.429688 C 259.644531 146.335938 259.664062 146.234375 259.644531 146.125 Z M 257.679688 135.660156 " fill-opacity="1" fill-rule="nonzero"/><path fill="#008080" d="M 275.164062 228.730469 C 275.144531 228.613281 275.089844 228.519531 274.996094 228.453125 C 274.902344 228.382812 274.796875 228.359375 274.679688 228.382812 C 274.566406 228.402344 274.476562 228.464844 274.414062 228.5625 C 274.351562 228.660156 274.332031 228.765625 274.359375 228.878906 L 276.316406 239.308594 C 276.359375 239.527344 276.492188 239.640625 276.71875 239.640625 C 276.742188 239.644531 276.769531 239.644531 276.792969 239.640625 C 276.90625 239.621094 276.992188 239.566406 277.054688 239.472656 C 277.121094 239.378906 277.140625 239.277344 277.121094 239.167969 Z M 275.164062 228.730469 " fill-opacity="1" fill-rule="nonzero"/><path fill="#008080" d="M 301.410156 211.011719 C 301.347656 211.101562 301.328125 211.207031 301.347656 211.316406 C 301.371094 211.421875 301.429688 211.507812 301.519531 211.570312 L 310.210938 217.511719 C 310.304688 217.574219 310.40625 217.597656 310.515625 217.574219 C 310.625 217.554688 310.714844 217.496094 310.777344 217.402344 C 310.839844 217.3125 310.863281 217.210938 310.839844 217.097656 C 310.820312 216.992188 310.761719 216.90625 310.667969 216.84375 L 301.988281 210.910156 C 301.898438 210.839844 301.792969 210.816406 301.679688 210.835938 C 301.566406 210.855469 301.476562 210.914062 301.410156 211.011719 Z M 301.410156 211.011719 " fill-opacity="1" fill-rule="nonzero"/><path fill="#008080" d="M 290.5 153.105469 C 290.59375 153.167969 290.695312 153.191406 290.808594 153.167969 C 290.917969 153.148438 291.003906 153.09375 291.070312 153 L 297.101562 144.175781 C 297.152344 144.085938 297.164062 143.988281 297.140625 143.886719 C 297.113281 143.785156 297.058594 143.703125 296.972656 143.644531 C 296.886719 143.585938 296.792969 143.5625 296.691406 143.574219 C 296.585938 143.589844 296.5 143.636719 296.433594 143.714844 L 290.394531 152.539062 C 290.332031 152.628906 290.308594 152.734375 290.328125 152.84375 C 290.351562 152.953125 290.40625 153.042969 290.5 153.105469 Z M 290.5 153.105469 " fill-opacity="1" fill-rule="nonzero"/><path fill="#008080" d="M 243.660156 222.121094 C 243.640625 222.011719 243.582031 221.929688 243.492188 221.867188 C 243.398438 221.804688 243.296875 221.785156 243.1875 221.804688 C 243.074219 221.824219 242.988281 221.882812 242.921875 221.972656 L 236.894531 230.789062 C 236.832031 230.882812 236.8125 230.984375 236.832031 231.09375 C 236.855469 231.207031 236.910156 231.292969 237.003906 231.355469 C 237.074219 231.40625 237.148438 231.429688 237.234375 231.429688 C 237.378906 231.429688 237.488281 231.367188 237.570312 231.25 L 243.597656 222.4375 C 243.664062 222.339844 243.683594 222.234375 243.660156 222.121094 Z M 243.660156 222.121094 " fill-opacity="1" fill-rule="nonzero"/><g fill="#008080" fill-opacity="1"><g transform="translate(114.424303, 193.45941)"><g><path d="M 4.4375 0 L 4.4375 -0.328125 C 4.832031 -0.453125 5.085938 -0.710938 5.203125 -1.109375 C 5.328125 -1.515625 5.390625 -2.144531 5.390625 -3 L 5.390625 -16.109375 L 4.65625 -16.109375 C 3.601562 -16.109375 2.773438 -15.929688 2.171875 -15.578125 C 1.578125 -15.222656 1.054688 -14.570312 0.609375 -13.625 L 0.328125 -13.671875 L 0.46875 -16.53125 L 12.78125 -16.53125 L 12.921875 -13.671875 L 12.640625 -13.625 C 12.203125 -14.570312 11.679688 -15.222656 11.078125 -15.578125 C 10.484375 -15.929688 9.65625 -16.109375 8.59375 -16.109375 L 7.921875 -16.109375 L 7.921875 -3 C 7.921875 -2.144531 7.976562 -1.515625 8.09375 -1.109375 C 8.207031 -0.710938 8.460938 -0.453125 8.859375 -0.328125 L 8.859375 0 Z M 4.4375 0 "/></g></g></g><g fill="#008080" fill-opacity="1"><g transform="translate(131.672434, 193.45941)"><g><path d="M 13.140625 0.171875 C 12.492188 0.171875 11.976562 0.0234375 11.59375 -0.265625 C 11.207031 -0.554688 10.867188 -1 10.578125 -1.59375 C 10.285156 -2.195312 9.945312 -2.957031 9.5625 -3.875 C 9.21875 -4.738281 8.925781 -5.46875 8.6875 -6.0625 C 8.457031 -6.65625 8.226562 -7.128906 8 -7.484375 C 7.78125 -7.835938 7.515625 -8.09375 7.203125 -8.25 C 6.890625 -8.40625 6.472656 -8.484375 5.953125 -8.484375 L 4.5625 -8.484375 L 4.5625 -3 C 4.5625 -2.144531 4.617188 -1.515625 4.734375 -1.109375 C 4.847656 -0.710938 5.101562 -0.453125 5.5 -0.328125 L 5.5 0 L 1.109375 0 L 1.109375 -0.328125 C 1.503906 -0.453125 1.757812 -0.710938 1.875 -1.109375 C 2 -1.515625 2.0625 -2.144531 2.0625 -3 L 2.0625 -13.53125 C 2.0625 -14.382812 2 -15.007812 1.875 -15.40625 C 1.757812 -15.8125 1.503906 -16.078125 1.109375 -16.203125 L 1.109375 -16.53125 L 6.078125 -16.53125 C 7.367188 -16.53125 8.414062 -16.425781 9.21875 -16.21875 C 10.03125 -16.007812 10.65625 -15.726562 11.09375 -15.375 C 11.539062 -15.019531 11.847656 -14.613281 12.015625 -14.15625 C 12.191406 -13.695312 12.28125 -13.226562 12.28125 -12.75 C 12.28125 -11.664062 11.898438 -10.742188 11.140625 -9.984375 C 10.390625 -9.234375 9.226562 -8.765625 7.65625 -8.578125 C 8.3125 -8.492188 8.859375 -8.359375 9.296875 -8.171875 C 9.734375 -7.984375 10.101562 -7.710938 10.40625 -7.359375 C 10.71875 -7.003906 11 -6.554688 11.25 -6.015625 C 11.5 -5.472656 11.78125 -4.804688 12.09375 -4.015625 C 12.519531 -2.972656 12.847656 -2.179688 13.078125 -1.640625 C 13.316406 -1.109375 13.539062 -0.753906 13.75 -0.578125 C 13.957031 -0.398438 14.203125 -0.3125 14.484375 -0.3125 C 14.546875 -0.3125 14.601562 -0.3125 14.65625 -0.3125 C 14.707031 -0.3125 14.769531 -0.316406 14.84375 -0.328125 L 14.84375 0 C 14.570312 0.0625 14.269531 0.101562 13.9375 0.125 C 13.601562 0.15625 13.335938 0.171875 13.140625 0.171875 Z M 4.5625 -8.859375 L 6.078125 -8.859375 C 6.972656 -8.859375 7.691406 -9.003906 8.234375 -9.296875 C 8.773438 -9.597656 9.164062 -10.003906 9.40625 -10.515625 C 9.65625 -11.035156 9.78125 -11.59375 9.78125 -12.1875 C 9.78125 -12.832031 9.640625 -13.457031 9.359375 -14.0625 C 9.078125 -14.675781 8.628906 -15.175781 8.015625 -15.5625 C 7.398438 -15.957031 6.59375 -16.15625 5.59375 -16.15625 C 5.269531 -16.15625 4.925781 -16.132812 4.5625 -16.09375 Z M 4.5625 -8.859375 "/></g></g></g><g fill="#008080" fill-opacity="1"><g transform="translate(150.290812, 193.45941)"><g><path d="M 8.71875 0.234375 C 7.863281 0.234375 7.023438 0.125 6.203125 -0.09375 C 5.390625 -0.3125 4.648438 -0.675781 3.984375 -1.1875 C 3.328125 -1.695312 2.800781 -2.378906 2.40625 -3.234375 C 2.007812 -4.085938 1.8125 -5.148438 1.8125 -6.421875 L 1.8125 -13.53125 C 1.8125 -14.382812 1.753906 -15.007812 1.640625 -15.40625 C 1.523438 -15.8125 1.269531 -16.078125 0.875 -16.203125 L 0.875 -16.53125 L 5.265625 -16.53125 L 5.265625 -16.203125 C 4.867188 -16.078125 4.613281 -15.8125 4.5 -15.40625 C 4.382812 -15.007812 4.328125 -14.382812 4.328125 -13.53125 L 4.328125 -6.234375 C 4.328125 -4.804688 4.546875 -3.65625 4.984375 -2.78125 C 5.421875 -1.914062 6.039062 -1.289062 6.84375 -0.90625 C 7.65625 -0.519531 8.59375 -0.328125 9.65625 -0.328125 C 10.164062 -0.328125 10.679688 -0.425781 11.203125 -0.625 C 11.734375 -0.832031 12.226562 -1.171875 12.6875 -1.640625 C 13.144531 -2.109375 13.515625 -2.726562 13.796875 -3.5 C 14.078125 -4.269531 14.21875 -5.226562 14.21875 -6.375 L 14.21875 -12.125 C 14.21875 -13.082031 14.15625 -13.835938 14.03125 -14.390625 C 13.90625 -14.941406 13.707031 -15.347656 13.4375 -15.609375 C 13.175781 -15.878906 12.835938 -16.078125 12.421875 -16.203125 L 12.421875 -16.53125 L 15.59375 -16.53125 L 15.59375 -16.203125 C 15.195312 -16.078125 14.9375 -15.8125 14.8125 -15.40625 C 14.695312 -15.007812 14.640625 -14.382812 14.640625 -13.53125 L 14.640625 -6.421875 C 14.640625 -4.847656 14.382812 -3.566406 13.875 -2.578125 C 13.363281 -1.597656 12.660156 -0.882812 11.765625 -0.4375 C 10.878906 0.0078125 9.863281 0.234375 8.71875 0.234375 Z M 8.71875 0.234375 "/></g></g></g><g fill="#008080" fill-opacity="1"><g transform="translate(170.539317, 193.45941)"><g><path d="M 10.390625 0.234375 C 8.515625 0.234375 6.890625 -0.0820312 5.515625 -0.71875 C 4.148438 -1.351562 3.101562 -2.28125 2.375 -3.5 C 1.644531 -4.726562 1.28125 -6.222656 1.28125 -7.984375 C 1.28125 -9.179688 1.503906 -10.300781 1.953125 -11.34375 C 2.398438 -12.394531 3.046875 -13.320312 3.890625 -14.125 C 4.734375 -14.925781 5.738281 -15.554688 6.90625 -16.015625 C 8.082031 -16.472656 9.394531 -16.703125 10.84375 -16.703125 C 11.425781 -16.703125 12.054688 -16.660156 12.734375 -16.578125 C 13.421875 -16.503906 14.078125 -16.382812 14.703125 -16.21875 C 15.328125 -16.050781 15.84375 -15.828125 16.25 -15.546875 L 16.34375 -12.421875 L 16.0625 -12.359375 C 15.75 -13.171875 15.285156 -13.863281 14.671875 -14.4375 C 14.054688 -15.019531 13.363281 -15.46875 12.59375 -15.78125 C 11.832031 -16.09375 11.046875 -16.25 10.234375 -16.25 C 8.972656 -16.25 7.859375 -15.972656 6.890625 -15.421875 C 5.921875 -14.867188 5.160156 -14.0625 4.609375 -13 C 4.054688 -11.9375 3.78125 -10.617188 3.78125 -9.046875 C 3.78125 -7.910156 3.941406 -6.816406 4.265625 -5.765625 C 4.597656 -4.710938 5.078125 -3.769531 5.703125 -2.9375 C 6.328125 -2.113281 7.09375 -1.460938 8 -0.984375 C 8.90625 -0.503906 9.929688 -0.265625 11.078125 -0.265625 C 12.398438 -0.265625 13.507812 -0.632812 14.40625 -1.375 C 15.300781 -2.113281 15.960938 -3.097656 16.390625 -4.328125 L 16.703125 -4.28125 L 16.328125 -0.890625 C 15.691406 -0.609375 14.90625 -0.347656 13.96875 -0.109375 C 13.03125 0.117188 11.835938 0.234375 10.390625 0.234375 Z M 10.390625 0.234375 "/></g></g></g><g fill="#008080" fill-opacity="1"><g transform="translate(192.299833, 193.45941)"><g><path d="M 1.109375 0 L 1.109375 -0.328125 C 1.503906 -0.453125 1.757812 -0.710938 1.875 -1.109375 C 2 -1.515625 2.0625 -2.144531 2.0625 -3 L 2.0625 -13.53125 C 2.0625 -14.382812 2 -15.007812 1.875 -15.40625 C 1.757812 -15.8125 1.503906 -16.078125 1.109375 -16.203125 L 1.109375 -16.53125 L 5.5 -16.53125 L 5.5 -16.203125 C 5.101562 -16.078125 4.847656 -15.8125 4.734375 -15.40625 C 4.617188 -15.007812 4.5625 -14.382812 4.5625 -13.53125 L 4.5625 -7.984375 L 10.296875 -13.875 C 11.054688 -14.644531 11.46875 -15.222656 11.53125 -15.609375 C 11.59375 -15.992188 11.375 -16.222656 10.875 -16.296875 L 10.875 -16.53125 L 14.578125 -16.53125 L 14.578125 -16.203125 C 14.109375 -16.078125 13.597656 -15.894531 13.046875 -15.65625 C 12.503906 -15.425781 11.9375 -15.003906 11.34375 -14.390625 L 6.3125 -9.234375 L 6.90625 -9.265625 C 7.78125 -9.304688 8.503906 -9.253906 9.078125 -9.109375 C 9.660156 -8.972656 10.144531 -8.71875 10.53125 -8.34375 C 10.914062 -7.976562 11.265625 -7.476562 11.578125 -6.84375 C 11.890625 -6.21875 12.226562 -5.429688 12.59375 -4.484375 C 13.0625 -3.285156 13.429688 -2.390625 13.703125 -1.796875 C 13.972656 -1.210938 14.203125 -0.820312 14.390625 -0.625 C 14.585938 -0.425781 14.816406 -0.328125 15.078125 -0.328125 C 15.140625 -0.328125 15.195312 -0.328125 15.25 -0.328125 C 15.300781 -0.328125 15.359375 -0.335938 15.421875 -0.359375 L 15.421875 0 C 15.160156 0.0625 14.890625 0.101562 14.609375 0.125 C 14.335938 0.15625 14.078125 0.171875 13.828125 0.171875 C 13.335938 0.171875 12.929688 0.117188 12.609375 0.015625 C 12.296875 -0.0859375 12.023438 -0.273438 11.796875 -0.546875 C 11.566406 -0.828125 11.328125 -1.234375 11.078125 -1.765625 C 10.835938 -2.304688 10.539062 -3.007812 10.1875 -3.875 C 9.800781 -4.789062 9.484375 -5.566406 9.234375 -6.203125 C 8.984375 -6.835938 8.734375 -7.347656 8.484375 -7.734375 C 8.242188 -8.117188 7.957031 -8.394531 7.625 -8.5625 C 7.300781 -8.738281 6.867188 -8.828125 6.328125 -8.828125 L 5.90625 -8.828125 L 4.5625 -7.4375 L 4.5625 -3 C 4.5625 -2.144531 4.617188 -1.515625 4.734375 -1.109375 C 4.847656 -0.710938 5.101562 -0.453125 5.5 -0.328125 L 5.5 0 Z M 1.109375 0 "/></g></g></g><g fill="#008080" fill-opacity="1"><g transform="translate(211.556095, 193.45941)"><g><path d="M 1.109375 0 L 1.109375 -0.328125 C 1.503906 -0.453125 1.757812 -0.710938 1.875 -1.109375 C 2 -1.515625 2.0625 -2.144531 2.0625 -3 L 2.0625 -13.53125 C 2.0625 -14.382812 2 -15.007812 1.875 -15.40625 C 1.757812 -15.8125 1.503906 -16.078125 1.109375 -16.203125 L 1.109375 -16.53125 L 5.5 -16.53125 L 5.5 -16.203125 C 5.101562 -16.078125 4.847656 -15.8125 4.734375 -15.40625 C 4.617188 -15.007812 4.5625 -14.382812 4.5625 -13.53125 L 4.5625 -3 C 4.5625 -2.144531 4.617188 -1.515625 4.734375 -1.109375 C 4.847656 -0.710938 5.101562 -0.453125 5.5 -0.328125 L 5.5 0 Z M 1.109375 0 "/></g></g></g><g fill="#008080" fill-opacity="1"><g transform="translate(222.189201, 193.45941)"><g><path d="M 4.4375 0 L 4.4375 -0.328125 C 4.832031 -0.453125 5.085938 -0.710938 5.203125 -1.109375 C 5.328125 -1.515625 5.390625 -2.144531 5.390625 -3 L 5.390625 -16.109375 L 4.65625 -16.109375 C 3.601562 -16.109375 2.773438 -15.929688 2.171875 -15.578125 C 1.578125 -15.222656 1.054688 -14.570312 0.609375 -13.625 L 0.328125 -13.671875 L 0.46875 -16.53125 L 12.78125 -16.53125 L 12.921875 -13.671875 L 12.640625 -13.625 C 12.203125 -14.570312 11.679688 -15.222656 11.078125 -15.578125 C 10.484375 -15.929688 9.65625 -16.109375 8.59375 -16.109375 L 7.921875 -16.109375 L 7.921875 -3 C 7.921875 -2.144531 7.976562 -1.515625 8.09375 -1.109375 C 8.207031 -0.710938 8.460938 -0.453125 8.859375 -0.328125 L 8.859375 0 Z M 4.4375 0 "/></g></g></g></svg>