<svg xmlns="http://www.w3.org/2000/svg" xmlns:xlink="http://www.w3.org/1999/xlink" width="500" zoomAndPan="magnify" viewBox="0 0 375 374.999991" height="500" preserveAspectRatio="xMidYMid meet" version="1.0"><defs><g/><clipPath id="e896a9e464"><path d="M 174 100.210938 L 248.261719 100.210938 L 248.261719 180 L 174 180 Z M 174 100.210938 " clip-rule="nonzero"/></clipPath><clipPath id="b9352d06ad"><path d="M 126.761719 159 L 218 159 L 218 206.710938 L 126.761719 206.710938 Z M 126.761719 159 " clip-rule="nonzero"/></clipPath></defs><rect x="-37.5" width="450" fill="#ffffff" y="-37.499999" height="449.999989" fill-opacity="1"/><rect x="-37.5" width="450" fill="#ffffff" y="-37.499999" height="449.999989" fill-opacity="1"/><g clip-path="url(#e896a9e464)"><path fill="#02743d" d="M 247.386719 135.082031 L 212.351562 100.996094 C 211.597656 100.238281 210.460938 100.238281 209.703125 100.996094 L 174.671875 135.082031 C 174.101562 135.648438 173.914062 136.40625 174.195312 137.164062 C 174.480469 137.921875 175.144531 138.300781 175.996094 138.300781 L 182.625 138.300781 L 182.625 155.34375 L 186.410156 155.34375 L 186.410156 138.300781 L 235.644531 138.300781 L 235.644531 176.171875 L 222.390625 176.171875 L 222.390625 151.554688 C 222.390625 150.515625 221.539062 149.660156 220.496094 149.660156 L 201.558594 149.660156 C 200.519531 149.660156 199.667969 150.515625 199.667969 151.554688 L 199.667969 155.34375 L 203.453125 155.34375 L 203.453125 153.449219 L 218.601562 153.449219 L 218.601562 179.960938 L 237.539062 179.960938 C 238.582031 179.960938 239.433594 179.109375 239.433594 178.066406 L 239.433594 138.300781 L 246.058594 138.300781 C 246.816406 138.300781 247.480469 137.828125 247.859375 137.164062 C 248.238281 136.5 247.953125 135.554688 247.386719 135.082031 Z M 247.386719 135.082031 " fill-opacity="1" fill-rule="nonzero"/></g><g clip-path="url(#b9352d06ad)"><path fill="#02743d" d="M 214.816406 189.523438 L 214.816406 162.917969 C 214.816406 160.835938 213.109375 159.128906 211.027344 159.128906 L 167.472656 159.128906 C 165.390625 159.128906 163.6875 160.835938 163.6875 162.917969 L 163.6875 189.429688 L 160.847656 189.429688 L 160.847656 168.597656 C 160.847656 166.515625 159.140625 164.8125 157.058594 164.8125 L 141.4375 164.8125 C 140.113281 164.8125 138.976562 165.472656 138.3125 166.515625 L 127.898438 182.707031 C 127.140625 183.746094 126.761719 185.074219 126.761719 186.304688 L 126.761719 196.054688 C 126.761719 198.613281 128.84375 200.789062 131.496094 200.789062 L 136.511719 200.789062 C 137.367188 204.007812 140.300781 206.46875 143.804688 206.46875 C 147.308594 206.46875 150.242188 204.007812 151.09375 200.789062 L 184.707031 200.789062 C 185.558594 204.007812 188.492188 206.46875 191.996094 206.46875 C 195.5 206.46875 198.433594 204.007812 199.289062 200.789062 L 213.867188 200.789062 C 215.953125 200.789062 217.65625 199.085938 217.65625 197.003906 L 217.65625 193.214844 C 217.65625 191.417969 216.425781 189.996094 214.816406 189.523438 Z M 143.804688 202.683594 C 141.722656 202.683594 140.015625 200.980469 140.015625 198.894531 C 140.015625 196.8125 141.722656 195.109375 143.804688 195.109375 C 145.886719 195.109375 147.589844 196.8125 147.589844 198.894531 C 147.589844 200.980469 145.886719 202.683594 143.804688 202.683594 Z M 151.378906 179.011719 C 151.378906 179.582031 151 179.960938 150.429688 179.960938 L 140.773438 179.960938 C 140.015625 179.960938 139.542969 179.109375 140.015625 178.539062 L 144.277344 171.910156 C 144.464844 171.628906 144.75 171.4375 145.035156 171.4375 L 150.429688 171.4375 C 151 171.4375 151.378906 171.816406 151.378906 172.386719 Z M 180.351562 171.722656 C 181.109375 170.964844 182.339844 170.964844 183.003906 171.722656 L 186.695312 175.507812 L 197.488281 167.082031 C 198.339844 166.421875 199.476562 166.609375 200.140625 167.367188 C 200.800781 168.21875 200.613281 169.355469 199.855469 170.019531 L 187.734375 179.484375 C 187.359375 179.863281 186.980469 179.960938 186.601562 179.960938 C 186.125 179.960938 185.652344 179.769531 185.273438 179.390625 L 180.351562 174.46875 C 179.59375 173.710938 179.59375 172.480469 180.351562 171.722656 Z M 192.089844 202.683594 C 190.007812 202.683594 188.304688 200.980469 188.304688 198.894531 C 188.304688 196.8125 190.007812 195.109375 192.089844 195.109375 C 194.175781 195.109375 195.878906 196.8125 195.878906 198.894531 C 195.878906 200.980469 194.175781 202.683594 192.089844 202.683594 Z M 213.867188 197.003906 L 199.382812 197.003906 C 198.53125 193.785156 195.59375 191.320312 192.089844 191.320312 C 188.589844 191.320312 185.652344 193.785156 184.800781 197.003906 L 160.847656 197.003906 L 160.847656 193.214844 L 182.246094 193.214844 L 182.8125 192.363281 C 184.992188 189.332031 188.398438 187.535156 192.089844 187.535156 C 195.785156 187.535156 199.289062 189.332031 201.371094 192.363281 L 201.9375 193.214844 L 213.867188 193.214844 Z M 213.867188 197.003906 " fill-opacity="1" fill-rule="nonzero"/></g><g fill="#02743d" fill-opacity="1"><g transform="translate(219.27708, 207.240382)"><g><path d="M 19.453125 -22.21875 L 12.84375 -22.21875 L 12.84375 0 L 7.4375 0 L 7.4375 -22.21875 L 0.9375 -22.21875 L 0.9375 -26.71875 L 19.453125 -26.71875 Z M 19.453125 -22.21875 "/></g></g></g><g fill="#02743d" fill-opacity="1"><g transform="translate(242.645251, 207.240382)"><g><path d="M 10.234375 -9.765625 L 7.5625 -9.765625 L 7.5625 0 L 2.171875 0 L 2.171875 -26.71875 L 10.765625 -26.71875 C 13.472656 -26.71875 15.5625 -26.015625 17.03125 -24.609375 C 18.507812 -23.210938 19.25 -21.222656 19.25 -18.640625 C 19.25 -15.097656 17.957031 -12.613281 15.375 -11.1875 L 20.0625 -0.25 L 20.0625 0 L 14.25 0 Z M 7.5625 -14.25 L 10.625 -14.25 C 11.695312 -14.25 12.503906 -14.609375 13.046875 -15.328125 C 13.585938 -16.046875 13.859375 -17.003906 13.859375 -18.203125 C 13.859375 -20.878906 12.8125 -22.21875 10.71875 -22.21875 L 7.5625 -22.21875 Z M 7.5625 -14.25 "/></g></g></g><g fill="#02743d" fill-opacity="1"><g transform="translate(266.41701, 207.240382)"><g><path d="M 19.515625 -26.71875 L 19.515625 -8.21875 C 19.492188 -5.445312 18.726562 -3.320312 17.21875 -1.84375 C 15.71875 -0.375 13.5625 0.359375 10.75 0.359375 C 7.882812 0.359375 5.695312 -0.382812 4.1875 -1.875 C 2.675781 -3.363281 1.921875 -5.519531 1.921875 -8.34375 L 1.921875 -26.71875 L 7.359375 -26.71875 L 7.359375 -8.328125 C 7.359375 -6.816406 7.601562 -5.734375 8.09375 -5.078125 C 8.582031 -4.429688 9.46875 -4.109375 10.75 -4.109375 C 12.03125 -4.109375 12.910156 -4.425781 13.390625 -5.0625 C 13.867188 -5.707031 14.113281 -6.765625 14.125 -8.234375 L 14.125 -26.71875 Z M 19.515625 -26.71875 "/></g></g></g><g fill="#02743d" fill-opacity="1"><g transform="translate(290.849186, 207.240382)"><g><path d="M 20.25 -8.90625 C 20.125 -5.851562 19.269531 -3.546875 17.6875 -1.984375 C 16.113281 -0.421875 13.890625 0.359375 11.015625 0.359375 C 7.992188 0.359375 5.675781 -0.628906 4.0625 -2.609375 C 2.457031 -4.597656 1.65625 -7.4375 1.65625 -11.125 L 1.65625 -15.609375 C 1.65625 -19.285156 2.484375 -22.113281 4.140625 -24.09375 C 5.804688 -26.082031 8.117188 -27.078125 11.078125 -27.078125 C 13.992188 -27.078125 16.207031 -26.265625 17.71875 -24.640625 C 19.226562 -23.015625 20.085938 -20.679688 20.296875 -17.640625 L 14.875 -17.640625 C 14.832031 -19.515625 14.546875 -20.8125 14.015625 -21.53125 C 13.484375 -22.25 12.503906 -22.609375 11.078125 -22.609375 C 9.640625 -22.609375 8.617188 -22.101562 8.015625 -21.09375 C 7.421875 -20.082031 7.101562 -18.421875 7.0625 -16.109375 L 7.0625 -11.0625 C 7.0625 -8.40625 7.359375 -6.582031 7.953125 -5.59375 C 8.546875 -4.601562 9.566406 -4.109375 11.015625 -4.109375 C 12.429688 -4.109375 13.40625 -4.453125 13.9375 -5.140625 C 14.476562 -5.835938 14.785156 -7.09375 14.859375 -8.90625 Z M 20.25 -8.90625 "/></g></g></g><g fill="#02743d" fill-opacity="1"><g transform="translate(315.244675, 207.240382)"><g><path d="M 9.671875 -10.3125 L 7.546875 -7.640625 L 7.546875 0 L 2.140625 0 L 2.140625 -26.71875 L 7.546875 -26.71875 L 7.546875 -15.0625 L 9.25 -17.9375 L 14.21875 -26.71875 L 20.828125 -26.71875 L 13.171875 -14.96875 L 20.953125 0 L 14.546875 0 Z M 9.671875 -10.3125 "/></g></g></g><g fill="#02743d" fill-opacity="1"><g transform="translate(338.998088, 207.240382)"><g><path d="M 7.78125 0 L 2.390625 0 L 2.390625 -26.71875 L 7.78125 -26.71875 Z M 7.78125 0 "/></g></g></g><g fill="#02743d" fill-opacity="1"><g transform="translate(352.129816, 207.240382)"><g><path d="M 19.453125 -22.21875 L 12.84375 -22.21875 L 12.84375 0 L 7.4375 0 L 7.4375 -22.21875 L 0.9375 -22.21875 L 0.9375 -26.71875 L 19.453125 -26.71875 Z M 19.453125 -22.21875 "/></g></g></g></svg>