<svg width="218" height="117" viewBox="0 0 218 117" fill="none" xmlns="http://www.w3.org/2000/svg">
<g id="Logo - Drivewise">
<path id="Vector" d="M10.0887 29.957C10.6386 27.3471 13.2401 25.23 15.8902 25.23H30.2975L18.3161 81.9606H3.90869C1.25648 81.9606 -0.448211 79.8456 0.103804 77.2336L10.0887 29.957ZM58.114 29.957C58.666 27.3471 61.2654 25.23 63.9155 25.23H78.3228L66.3414 81.9606H51.934C49.2818 81.9606 47.5771 79.8456 48.1291 77.2336L58.114 29.957ZM154.167 29.957C154.717 27.3471 157.314 25.23 159.968 25.23H174.376L162.394 81.9606H147.985C145.332 81.9606 143.63 79.8456 144.182 77.2336L154.167 29.957ZM83.126 25.23H97.5334C100.186 25.23 101.89 27.345 101.338 29.957L91.3533 77.2336C90.8034 79.8456 88.2041 81.9606 85.5519 81.9606H71.1445L83.126 25.23ZM179.179 25.23H193.586C196.238 25.23 197.943 27.345 197.391 29.957L187.404 77.2336C186.854 79.8456 184.257 81.9606 181.605 81.9606H167.195L179.179 25.23ZM106.141 29.957C106.691 27.3471 109.289 25.23 111.941 25.23H126.35L114.367 81.9606H99.9593C97.3071 81.9606 95.6024 79.8456 96.1565 77.2336L106.139 29.957H106.141ZM131.151 25.23H145.561C148.213 25.23 149.916 27.345 149.364 29.957L134.387 100.873C133.833 103.483 131.236 105.6 128.584 105.6H114.174L131.151 25.23ZM27.1123 63.0504H46.3229L43.328 77.2336C42.776 79.8456 40.1767 81.9606 37.5266 81.9606H23.1171L27.1102 63.0525L27.1123 63.0504ZM94.16 86.6898H113.368L109.375 105.6H94.9679C92.3136 105.6 90.611 103.485 91.163 100.873L94.16 86.6898ZM146.303 91.0868L143.871 102.605C143.765 103.1 143.6 103.235 143.097 103.235H141.991C141.487 103.235 141.377 103.1 141.483 102.605L143.915 91.0868C144.021 90.5941 144.186 90.4566 144.689 90.4566H145.796C146.299 90.4566 146.409 90.5941 146.303 91.0868ZM149.501 98.8574H149.275C149.034 98.8574 148.949 98.925 148.9 99.164L148.173 102.605C148.067 103.1 147.9 103.235 147.399 103.235H146.29C145.789 103.235 145.679 103.1 145.783 102.605L148.215 91.0868C148.321 90.5941 148.49 90.4566 148.991 90.4566H151.276C153.907 90.4566 154.903 91.3935 154.416 93.6925L154.01 95.6193C153.524 97.9204 152.132 98.8574 149.501 98.8574ZM150.169 93.149L149.535 96.165C149.482 96.404 149.537 96.4716 149.78 96.4716H150.144C150.99 96.4716 151.445 96.1311 151.629 95.2619L151.883 94.0521C152.066 93.1849 151.758 92.8423 150.91 92.8423H150.546C150.305 92.8423 150.22 92.91 150.169 93.149ZM158.075 95.0059L159.873 96.9835C160.816 98.005 160.947 98.6184 160.706 99.7605L160.643 100.067C160.188 102.214 159.105 103.407 156.595 103.407C154.086 103.407 153.467 102.402 154.046 99.6568L154.118 99.3184C154.224 98.8235 154.391 98.686 154.892 98.686H156.068C156.571 98.686 156.681 98.8235 156.576 99.3163L156.417 100.067C156.273 100.748 156.493 101.021 157.098 101.021C157.705 101.021 158.035 100.767 158.166 100.154L158.234 99.8281C158.335 99.3502 158.28 99.1133 157.76 98.5507L156.068 96.7275C155.121 95.7229 155 95.1413 155.241 93.9992L155.319 93.627C155.774 91.4802 156.857 90.2853 159.365 90.2853C161.876 90.2853 162.496 91.292 161.916 94.0352L161.844 94.3757C161.738 94.8706 161.571 95.0059 161.07 95.0059H159.892C159.391 95.0059 159.281 94.8706 159.384 94.3757L159.543 93.627C159.687 92.9438 159.469 92.6731 158.862 92.6731C158.257 92.6731 157.925 92.9269 157.796 93.5402L157.735 93.83C157.629 94.3249 157.684 94.5639 158.075 95.0059ZM168.21 91.0868C168.316 90.5941 168.481 90.4566 168.984 90.4566H170.091C170.594 90.4566 170.704 90.5941 170.598 91.0868L168.788 99.6589C168.208 102.402 167.165 103.407 164.655 103.407C162.147 103.407 161.527 102.402 162.106 99.6568L163.917 91.0868C164.023 90.5941 164.19 90.4566 164.691 90.4566H165.799C166.3 90.4566 166.41 90.5941 166.307 91.0868L164.41 100.067C164.266 100.748 164.503 101.021 165.16 101.021C165.799 101.021 166.169 100.748 166.313 100.067L168.21 91.0868ZM175.414 98.0219C175.42 98.1594 175.465 98.1911 175.551 98.1911C175.636 98.1911 175.697 98.1594 175.761 98.0219L178.751 90.9007C178.897 90.5412 179.071 90.4566 179.504 90.4566H181.184C181.685 90.4566 181.795 90.5941 181.691 91.0868L179.259 102.605C179.153 103.1 178.984 103.235 178.483 103.235H177.688C177.186 103.235 177.074 103.1 177.18 102.605L178.347 97.085C178.379 96.9327 178.352 96.8967 178.248 96.8967C178.178 96.8967 178.1 96.9327 178.058 97.0511L175.642 102.675C175.469 103.083 175.247 103.235 174.746 103.235H174.276C173.756 103.235 173.599 103.083 173.599 102.675L173.54 97.049C173.53 96.9306 173.502 96.8967 173.415 96.8967C173.312 96.8967 173.269 96.9327 173.238 97.085L172.072 102.605C171.967 103.1 171.802 103.235 171.298 103.235H170.503C170 103.235 169.89 103.1 169.995 102.605L172.428 91.0868C172.533 90.5941 172.7 90.4566 173.202 90.4566H174.64C175.245 90.4566 175.439 90.5941 175.435 91.1905L175.412 98.0219H175.414ZM211.5 25.23C211.5 27.5671 209.618 29.46 207.298 29.46C206.744 29.4583 206.196 29.3476 205.685 29.1341C205.174 28.9206 204.71 28.6085 204.32 28.2157C203.93 27.8229 203.621 27.357 203.411 26.8447C203.2 26.3324 203.093 25.7837 203.095 25.23C203.095 22.8929 204.977 21 207.298 21C209.618 21 211.5 22.8929 211.5 25.23Z" fill="white"/>
</g>
</svg>
